<svg width="419" height="915" viewBox="0 0 419 915" fill="none" xmlns="http://www.w3.org/2000/svg">
<g style="mix-blend-mode:color-dodge" opacity="0.15">
<path d="M323.502 315.716C316.001 339.628 299.858 359.958 278 373.019C256.143 386.08 230.019 391.006 204.369 386.904C178.719 382.803 155.24 369.945 138.193 350.663C121.146 331.381 111.66 306.953 111.455 281.81C111.25 256.666 120.34 232.473 137.076 213.619C153.812 194.766 177.086 182.5 202.674 179.048C228.263 175.595 254.472 181.185 276.547 194.802C298.622 208.42 315.1 229.164 322.993 253.27C326.49 264.004 328.316 275.153 328.411 286.344C328.18 296.336 326.529 306.22 323.502 315.716V315.716Z" fill="#279976"/>
<path d="M224.313 572.971C213.797 606.492 190.975 634.932 159.985 653.132C128.995 671.333 91.8914 678.087 55.4044 672.172C18.9173 666.256 -14.5361 648.062 -38.8868 620.889C-63.2376 593.716 -76.8732 559.365 -77.3194 524.068C-77.7655 488.77 -64.9927 454.863 -41.3186 428.5C-17.6446 402.136 15.3629 385.06 51.7159 380.372C88.0689 375.683 125.359 383.691 156.823 402.943C188.286 422.195 211.837 451.417 223.205 485.306C228.242 500.396 230.907 516.058 231.11 531.768C230.844 545.793 228.556 559.658 224.313 572.971V572.971Z" fill="#279976"/>
<path d="M59.1369 811.578C51.7759 835.043 35.9283 854.991 14.4685 867.805C-6.99133 880.618 -32.6414 885.447 -57.8288 881.417C-83.0163 877.387 -106.073 864.764 -122.815 845.838C-139.558 826.913 -148.877 802.938 -149.084 778.263C-149.29 753.588 -140.368 729.847 -123.938 711.348C-107.509 692.848 -84.6583 680.816 -59.5327 677.433C-34.4072 674.05 -8.67081 679.54 13.0077 692.908C34.6862 706.276 50.8705 726.637 58.625 750.295C62.0609 760.83 63.8564 771.771 63.9511 782.754C63.7269 792.56 62.1068 802.259 59.1369 811.578V811.578Z" fill="#279976"/>
<path d="M305.832 594.45C304.43 598.919 301.312 602.688 297.044 605.072C292.776 607.456 287.641 608.298 282.57 607.444C277.499 606.591 272.828 604.099 269.404 600.42C265.981 596.742 264.031 592.12 263.91 587.395C263.788 582.669 265.503 578.152 268.742 574.662C271.982 571.173 276.531 568.943 281.566 568.377C286.601 567.81 291.787 568.945 296.183 571.576C300.58 574.206 303.896 578.157 305.53 582.713C306.255 584.741 306.651 586.842 306.705 588.946C306.692 590.823 306.398 592.675 305.832 594.45Z" fill="#228365"/>
<path d="M13.6112 322.138C9.40496 335.546 0.291953 346.928 -12.0748 354.217C-24.4416 361.506 -39.2428 364.221 -53.7934 361.868C-68.3441 359.516 -81.6803 352.252 -91.3827 341.395C-101.085 330.538 -106.511 316.806 -106.676 302.691C-106.842 288.576 -101.735 275.013 -92.2831 264.462C-82.8312 253.911 -69.6601 247.071 -55.1591 245.183C-40.658 243.294 -25.7877 246.483 -13.2457 254.171C-0.703613 261.858 8.67922 273.535 13.201 287.082C15.2046 293.115 16.2617 299.377 16.3369 305.659C16.2259 311.268 15.3086 316.813 13.6112 322.138Z" fill="#228365"/>
<path d="M84.0002 169.762C83.0187 172.89 80.7883 175.513 77.7133 177.155C74.6384 178.796 70.9228 179.347 67.2404 178.708C63.558 178.069 60.1529 176.282 57.6428 173.672C55.1326 171.061 53.6836 167.8 53.5588 164.479C53.4339 161.159 54.6415 157.999 56.9623 155.573C59.2831 153.148 62.5635 151.616 66.2083 151.258C69.8532 150.899 73.6211 151.737 76.8285 153.619C80.0359 155.501 82.4703 158.302 83.6901 161.515C84.2308 162.945 84.5343 164.424 84.5903 165.902C84.5953 167.221 84.3967 168.519 84.0002 169.762Z" fill="#279976"/>
</g>
</svg>
